<svg xmlns="http://www.w3.org/2000/svg" width="89.665" height="80" viewBox="0 0 89.665 80">
  <g id="Grupo_847" data-name="Grupo 847" transform="translate(-1.499 -4.841)">
    <path id="Trazado_2973" data-name="Trazado 2973" d="M18.341,26.875a7.209,7.209,0,1,0-7.209-7.21A7.218,7.218,0,0,0,18.341,26.875Zm0-11.526a4.317,4.317,0,1,1-4.317,4.317A4.322,4.322,0,0,1,18.341,15.349Z" transform="translate(4.298 3.398)" fill="#284491"/>
    <path id="Trazado_2974" data-name="Trazado 2974" d="M6.295,50.808H6.3a4.828,4.828,0,0,0,4.3-3.214l1.971-5.357a3.032,3.032,0,0,1,1.65-1.751V50.3L6.968,74.2a4.973,4.973,0,1,0,9.537,2.82l7.184-24.949,7,.811L29.064,62.9a4.781,4.781,0,1,0,9.448,1.475L40.239,52.89a8.93,8.93,0,0,0-8.39-10.243l-.8-.039V40.163L46.335,24.882,61.611,40.158v2.45l-.791.041a8.928,8.928,0,0,0-8.4,10.24l1.733,11.471c.857,6.213,10.443,4.789,9.452-1.465L62.025,52.822l6.949-.763,7.178,24.957A4.971,4.971,0,1,0,85.686,74.2L78.443,50.275V40.487A3.05,3.05,0,0,1,80.1,42.24l1.958,5.341a4.785,4.785,0,0,0,4.3,3.22,4.657,4.657,0,0,0,4.384-6.575l-2.9-6.428a14.661,14.661,0,0,0-13.226-8.684H65.311a4.026,4.026,0,0,1-2.825-1.171L50.309,15.753c-2.11-2.11-6.242-1.714-7.957,0L30.181,27.938a3.975,3.975,0,0,1-2.833,1.174H18.042a13.981,13.981,0,0,0-5.125.97,14.9,14.9,0,0,0-8.1,7.72l-2.9,6.42A4.671,4.671,0,0,0,6.295,50.808Zm59.016-18.8h9.306a11.781,11.781,0,0,1,10.591,6.986l2.9,6.43a1.764,1.764,0,0,1-1.678,2.487,1.887,1.887,0,0,1-1.653-1.319l-1.96-5.348a5.938,5.938,0,0,0-4-3.681l-1.441-.392a1.446,1.446,0,0,0-1.825,1.4V50.489a1.45,1.45,0,0,0,.062.419L82.92,75.043a2.079,2.079,0,1,1-3.988,1.175L71.417,50.09a1.449,1.449,0,0,0-1.547-1.038l-8.167.9a2.975,2.975,0,0,0-2.027,1.159,2.935,2.935,0,0,0-.551,2.231l1.623,10.015a1.89,1.89,0,1,1-3.733.593L55.279,52.458a6.035,6.035,0,0,1,5.684-6.92l2.169-.112A1.446,1.446,0,0,0,64.5,43.982V39.56a1.446,1.446,0,0,0-.424-1.023l-15.7-15.7.7-.7a4.578,4.578,0,0,0,1.241-2.287L60.44,29.988A6.937,6.937,0,0,0,65.311,32.007ZM4.549,45.412,7.45,39a12.013,12.013,0,0,1,6.527-6.225A11.093,11.093,0,0,1,18.042,32h9.306a6.852,6.852,0,0,0,4.879-2.022L44.4,17.8a1.78,1.78,0,0,1,3.137,1.075,1.7,1.7,0,0,1-.5,1.222L28.585,38.542a1.446,1.446,0,0,0-.424,1.023l.006,4.552a1.448,1.448,0,0,0,1.369,1.313l2.171.107a6.029,6.029,0,0,1,5.672,6.923L35.652,63.946a1.889,1.889,0,1,1-3.733-.583l1.621-10.02a2.942,2.942,0,0,0-2.584-3.4L22.8,49.053a1.45,1.45,0,0,0-1.547,1.037L13.726,76.216a2.08,2.08,0,1,1-3.99-1.18L17.054,50.91a1.443,1.443,0,0,0,.057-.532V38.563a1.446,1.446,0,0,0-1.824-1.4l-1.448.393a5.935,5.935,0,0,0-3.989,3.69L7.882,46.595a1.931,1.931,0,0,1-1.718,1.323A1.778,1.778,0,0,1,4.549,45.412Z" transform="translate(0 4.227)" fill="#284491"/>
    <path id="Trazado_2975" data-name="Trazado 2975" d="M51.106,26.875a7.209,7.209,0,1,0-7.21-7.21A7.217,7.217,0,0,0,51.106,26.875Zm0-11.526a4.317,4.317,0,1,1-4.317,4.317A4.321,4.321,0,0,1,51.106,15.349Z" transform="translate(18.916 3.398)" fill="#284491"/>
    <path id="Trazado_2976" data-name="Trazado 2976" d="M26.9,19.143A1.446,1.446,0,0,0,28.949,17.1l-.573-.573h.814A1.446,1.446,0,0,0,30.57,15.51l.686-2.2.759.759a1.446,1.446,0,0,0,2.309-.362l2.216-4.317,2.216,4.317a1.446,1.446,0,0,0,2.309.362l.759-.759.686,2.2a1.446,1.446,0,0,0,1.381,1.015h.814l-.573.573a1.446,1.446,0,0,0,2.045,2.045L49.22,16.1A1.446,1.446,0,0,0,48.2,13.632H44.955l-1.082-3.466a1.446,1.446,0,0,0-2.4-.591l-1.046,1.047-2.6-5.057a1.506,1.506,0,0,0-2.573,0l-2.6,5.057L31.612,9.575a1.446,1.446,0,0,0-2.4.591l-1.082,3.466H24.885A1.446,1.446,0,0,0,23.862,16.1Z" transform="translate(9.789 0)" fill="#284491"/>
  </g>
</svg>
