<svg xmlns="http://www.w3.org/2000/svg" width="74.393" height="82.004" viewBox="0 0 74.393 82.004">
  <g id="Grupo_868" data-name="Grupo 868" transform="translate(-23.881 1.004)">
    <g id="Grupo_867" data-name="Grupo 867" transform="translate(25.126 -0.001)">
      <g id="Grupo_866" data-name="Grupo 866" transform="translate(0 0)">
        <path id="Trazado_2997" data-name="Trazado 2997" d="M456.633,361.852a2.587,2.587,0,0,1,1.815.76l.015.015a2.586,2.586,0,0,1,.726,1.8,2.666,2.666,0,0,1-.741,1.813l-.033.015a2.56,2.56,0,0,1-3.594-.015l-.032-.03a2.582,2.582,0,0,1-.726-1.783,2.552,2.552,0,0,1,.758-1.813l.017-.032A2.574,2.574,0,0,1,456.633,361.852Zm0,3.626a1.061,1.061,0,0,0,1.055-1.053,1.024,1.024,0,0,0-.312-.76,1.049,1.049,0,0,0-.743-.31,1.113,1.113,0,0,0-.758.31,1.086,1.086,0,0,0-.312.76,1.062,1.062,0,0,0,1.07,1.053Z" transform="translate(-387.041 -305.313)" fill="#284491" stroke="#284491" stroke-width="2"/>
        <path id="Trazado_2998" data-name="Trazado 2998" d="M377.263,47.536l-2.727,1.581a.747.747,0,1,1-.76-1.286l1.61-.931-1.61-.929a.754.754,0,0,1-.279-1.023.775.775,0,0,1,1.038-.278l2.727,1.58a.736.736,0,0,1,.263,1.023A.613.613,0,0,1,377.263,47.536Z" transform="translate(-318.983 -37.609)" fill="#284491" stroke="#284491" stroke-width="2"/>
        <path id="Trazado_2999" data-name="Trazado 2999" d="M327.921,186.209a11.554,11.554,0,0,1-6.214,7.656l-.4.169-.248-.355a7.192,7.192,0,0,0-5.842-3.44V189.2a8.214,8.214,0,0,1,6.462,3.517,10.7,10.7,0,0,0,5.205-6.6l.466.092Z" transform="translate(-269.889 -157.036)" fill="#284491" stroke="#284491" stroke-width="2"/>
        <path id="Trazado_3000" data-name="Trazado 3000" d="M341.409,306.559a12.813,12.813,0,0,1-5.952,3.27,5.467,5.467,0,0,1-3.207,5.9l-.048.032a1.769,1.769,0,0,1-.635.122v-1.053a.45.45,0,0,0,.218-.047,4.446,4.446,0,0,0,2.542-5.268l-.124-.558.557-.077a11.392,11.392,0,0,0,5.89-3.069l.387.357Z" transform="translate(-283.686 -258.031)" fill="#284491" stroke="#284491" stroke-width="2"/>
        <path id="Trazado_3001" data-name="Trazado 3001" d="M300.224,489.588a.751.751,0,0,1,0,1.5h-3.9a.751.751,0,0,1,0-1.5Z" transform="translate(-253.317 -413.09)" fill="#284491" stroke="#284491" stroke-width="2"/>
        <path id="Trazado_3002" data-name="Trazado 3002" d="M262.942,253.466c8.585-2.138,11.267,3.874,11.546,4.572l-.387.154-.575.278-.015-.045c-.248-.605-2.588-5.873-10.32-3.936Z" transform="translate(-225.783 -213.476)" fill="#284491" stroke="#284491" stroke-width="2"/>
        <path id="Trazado_3003" data-name="Trazado 3003" d="M292.982,110.883a10.651,10.651,0,0,1-2.7,1.332l-.032.015a1.431,1.431,0,0,1-.433.079v-1.055a.508.508,0,0,0,.124-.03,9.563,9.563,0,0,0,2.712-1.41,5.312,5.312,0,0,0-2.388-2.4l.466-.946a6.578,6.578,0,0,1,2.727,2.635,8.964,8.964,0,0,0,2.666-6.089h1.053a10.173,10.173,0,0,1-3.3,7.143,5.649,5.649,0,0,1-.511,4.2l-.944-.48A4.814,4.814,0,0,0,292.982,110.883Z" transform="translate(-248.463 -86.916)" fill="#284491" stroke="#284491" stroke-width="2"/>
        <path id="Trazado_3004" data-name="Trazado 3004" d="M259.547,502.479a.744.744,0,0,1,0,1.488h-8.337a.744.744,0,1,1,0-1.488Z" transform="translate(-215.243 -423.967)" fill="#284491" stroke="#284491" stroke-width="2"/>
        <path id="Trazado_3005" data-name="Trazado 3005" d="M265.611,59.064a8.441,8.441,0,0,1,5.873,2.975l-.775.713a7.454,7.454,0,0,0-5.129-2.633,5.16,5.16,0,0,0-3.875,1.627L260.962,61A6.307,6.307,0,0,1,265.611,59.064Z" transform="translate(-224.113 -49.834)" fill="#284491" stroke="#284491" stroke-width="2"/>
        <path id="Trazado_3006" data-name="Trazado 3006" d="M266.333,379.711a12.691,12.691,0,0,0,2.866,4.494l-.357.387-.387.355a13.259,13.259,0,0,1-3.223-5.207,11.755,11.755,0,0,1-1.688-.185l.185-1.04a10.394,10.394,0,0,0,1.27.171,6.862,6.862,0,0,1,.141-2.851l1.022.279a5.756,5.756,0,0,0-.091,2.557,4.907,4.907,0,0,0,4.028-2.356l.929.466A5.951,5.951,0,0,1,266.333,379.711Z" transform="translate(-226.29 -317.113)" fill="#284491" stroke="#284491" stroke-width="2"/>
        <path id="Trazado_3007" data-name="Trazado 3007" d="M190.887,377.512l.2,1.04a11.268,11.268,0,0,1-1.952.2,7.9,7.9,0,0,1-1.085-.078,13.57,13.57,0,0,1-3.176,5.083l-.76-.728.016-.015a12.446,12.446,0,0,0,2.882-4.557,5.661,5.661,0,0,1-3.409-2.68l.946-.466a4.568,4.568,0,0,0,2.727,2.108,5.71,5.71,0,0,0-.108-2.5l1.022-.278a6.834,6.834,0,0,1,.109,3.007,7.362,7.362,0,0,0,.837.045A9.108,9.108,0,0,0,190.887,377.512Z" transform="translate(-158.842 -316.108)" fill="#284491" stroke="#284491" stroke-width="2"/>
        <path id="Trazado_3008" data-name="Trazado 3008" d="M169.229,254.5c-7.716-1.937-10.041,3.284-10.274,3.857a.19.19,0,0,0,.016-.093h-1.054a7.012,7.012,0,0,1,2.51-3.44c1.6-1.256,4.463-2.5,9.05-1.348Z" transform="translate(-137.168 -213.492)" fill="#284491" stroke="#284491" stroke-width="2"/>
        <path id="Trazado_3009" data-name="Trazado 3009" d="M172.2,61.691a7.824,7.824,0,0,0-5.145,2.571,1.5,1.5,0,0,0-.14.124l-.325-.418-.341-.387c.016-.015.032-.047.062-.062a9,9,0,0,1,5.843-2.883,6.048,6.048,0,0,1,4.571,1.937l-.744.745A4.986,4.986,0,0,0,172.2,61.691Z" transform="translate(-144.196 -51.158)" fill="#284491" stroke="#284491" stroke-width="2"/>
        <path id="Trazado_3010" data-name="Trazado 3010" d="M151.189,114.834a5.714,5.714,0,0,1-.511-4.122,10.107,10.107,0,0,1-3.967-7.7h1.053a9.048,9.048,0,0,0,3.3,6.678,6.345,6.345,0,0,1,2.758-2.742l.465.944a5.26,5.26,0,0,0-2.355,2.4,9.007,9.007,0,0,0,1.983.931l-.341.991a9.926,9.926,0,0,1-1.967-.882,4.732,4.732,0,0,0,.527,3.02Z" transform="translate(-127.713 -86.915)" fill="#284491" stroke="#284491" stroke-width="2"/>
        <path id="Trazado_3011" data-name="Trazado 3011" d="M131.71,12.547a.753.753,0,0,1-.527.914l-1.347.357a.748.748,0,0,1-.915-.527.766.766,0,0,1,.543-.931l1.317-.34A.756.756,0,0,1,131.71,12.547Z" transform="translate(-112.681 -10.12)" fill="#284491" stroke="#284491" stroke-width="2"/>
        <path id="Trazado_3012" data-name="Trazado 3012" d="M123.362,25.234a.746.746,0,1,1,1.441-.388l.341,1.3a.746.746,0,0,1-1.441.387Z" transform="translate(-107.991 -20.497)" fill="#284491" stroke="#284491" stroke-width="2"/>
        <path id="Trazado_3013" data-name="Trazado 3013" d="M118.6,1.806a.746.746,0,1,1-1.441.387l-.34-1.255a.758.758,0,0,1,.527-.914.744.744,0,0,1,.914.527Z" transform="translate(-102.472 0.001)" fill="#284491" stroke="#284491" stroke-width="2"/>
        <path id="Trazado_3014" data-name="Trazado 3014" d="M106.8,18.367a.74.74,0,0,1,.914.527.753.753,0,0,1-.527.915l-1.364.371a.752.752,0,0,1-.914-.527.74.74,0,0,1,.527-.914Z" transform="translate(-92.424 -15.475)" fill="#284491" stroke="#284491" stroke-width="2"/>
        <path id="Trazado_3015" data-name="Trazado 3015" d="M99.354,186.021c.015.045,1.131,4.617,5.207,6.616a8.089,8.089,0,0,1,6.462-3.517v1.038a7.188,7.188,0,0,0-5.843,3.44l-.248.355-.4-.169c-4.959-2.138-6.213-7.609-6.213-7.656h.527Z" transform="translate(-86.88 -156.955)" fill="#284491" stroke="#284491" stroke-width="2"/>
        <path id="Trazado_3016" data-name="Trazado 3016" d="M88.417,295.594l.574.077-.124.558a4.442,4.442,0,0,0,2.557,5.284l-.48.944a5.464,5.464,0,0,1-3.207-5.92,12.725,12.725,0,0,1-5.981-3.269l.743-.745A11.629,11.629,0,0,0,88.417,295.594Z" transform="translate(-72.906 -246.818)" fill="#284491" stroke="#284491" stroke-width="2"/>
        <path id="Trazado_3017" data-name="Trazado 3017" d="M58.406,400.888a.494.494,0,0,0-.357-.139.483.483,0,0,0-.34.139.431.431,0,0,0-.139.34.476.476,0,0,0,.48.481.494.494,0,0,0,.357-.14.563.563,0,0,0,.139-.342A.491.491,0,0,0,58.406,400.888Zm1.627.34a1.966,1.966,0,0,1-.573,1.4,1.964,1.964,0,0,1-2.8,0,1.98,1.98,0,0,1-.589-1.4,2.019,2.019,0,0,1,.589-1.41,2,2,0,0,1,2.8,0A2,2,0,0,1,60.033,401.228Z" transform="translate(-51.232 -336.864)" fill="#284491" stroke="#284491" stroke-width="2"/>
        <path id="Trazado_3018" data-name="Trazado 3018" d="M45.217,163.166l-1.441.434-.4-1.348,1.441-.434Z" transform="translate(-40.522 -136.534)" fill="#284491" stroke="#284491" stroke-width="2"/>
        <path id="Trazado_3019" data-name="Trazado 3019" d="M83.294,103.581a8.15,8.15,0,0,0,5.514-1.83l.158-.123.2.015c.154.015.3.015.451.015,4.431,0,8.94-3.966,10.723-9.422l.091-.263.3-.077a9.749,9.749,0,0,0,7.018-6.988c.837-3.007.294-6.059-1.41-7.765l-.465-.48.573-.341c1.132-.667,1.689-3.611,1.332-7-.4-3.765-1.982-8.538-5.144-9.576l-.511-.171.171-.5c1.068-3.192-.372-6.879-2.091-9.281-1.629-2.247-3.659-3.72-5.194-3.72h-.387l-.106-.356c-1.179-3.58-7.578-7.423-11.219-7.423-5.27,0-5.332,3.239-5.332,3.378V94.453C77.962,100.342,77.962,103.581,83.294,103.581ZM59.863,46.075c-1.534,0-3.564,1.472-5.191,3.72-1.72,2.4-3.176,6.09-2.092,9.281l.171.5-.511.171c-2.96.976-4.726,5.516-5.145,9.576-.356,3.41.2,6.338,1.333,7l.574.341-.465.48c-1.7,1.721-2.247,4.758-1.41,7.78A9.727,9.727,0,0,0,54.145,91.9l.294.077.077.263c1.8,5.455,6.307,9.422,10.739,9.422.155,0,.294,0,.45-.015l.2-.015.155.122a8.113,8.113,0,0,0,5.5,1.83c5.347,0,5.347-3.238,5.347-9.128V41.674c0-.139-.109-3.378-5.347-3.378-3.626,0-10.025,3.842-11.2,7.423l-.109.356ZM53.82,49.189c1.72-2.4,3.858-3.936,5.671-4.137A12.5,12.5,0,0,1,64.434,39.8a14.387,14.387,0,0,1,7.127-2.541c3.626,0,5.191,1.426,5.873,2.65.682-1.224,2.247-2.65,5.859-2.65,3.965,0,10.49,3.8,12.085,7.793,1.813.2,3.953,1.736,5.672,4.137,1.783,2.48,3.3,6.292,2.388,9.732,3.314,1.488,4.973,6.4,5.375,10.289.3,2.728.079,6.183-1.347,7.625a9.376,9.376,0,0,1,1.286,8.367,10.761,10.761,0,0,1-7.5,7.639,16.372,16.372,0,0,1-4.773,7.082,10.776,10.776,0,0,1-6.864,2.789c-.109,0-.2-.015-.312-.015a9.1,9.1,0,0,1-6.011,1.937c-2.945,0-4.727-.946-5.61-2.96-.093-.216-.171-.449-.248-.681-.077.231-.154.465-.248.681-.882,2.014-2.665,2.96-5.625,2.96A9.16,9.16,0,0,1,65.55,102.7c-4.881.171-9.9-4-11.932-9.856a10.762,10.762,0,0,1-7.5-7.639A9.388,9.388,0,0,1,47.4,76.835c-1.441-1.442-1.643-4.9-1.363-7.625.418-3.889,2.061-8.8,5.393-10.289C50.518,55.481,52.038,51.669,53.82,49.189Z" transform="translate(-42.477 -31.436)" fill="#284491" stroke="#284491" stroke-width="2"/>
        <path id="Trazado_3020" data-name="Trazado 3020" d="M38.251,173.227l.4,1.347-1.425.419-.4-1.333v-.015Z" transform="translate(-34.998 -146.16)" fill="#284491" stroke="#284491" stroke-width="2"/>
        <path id="Trazado_3021" data-name="Trazado 3021" d="M31.668,156.4l1.441-.434.387,1.348-1.425.433Z" transform="translate(-30.646 -131.598)" fill="#284491" stroke="#284491" stroke-width="2"/>
        <path id="Trazado_3022" data-name="Trazado 3022" d="M25.126,167.786l1.426-.419.4,1.333v.015l-1.426.419Z" transform="translate(-25.126 -141.216)" fill="#284491" stroke="#284491" stroke-width="2"/>
      </g>
    </g>
  </g>
</svg>
