<svg id="Componente_3" data-name="Componente 3" xmlns="http://www.w3.org/2000/svg" width="203.084" height="35.564" viewBox="0 0 203.084 35.564">
  <g id="Grupo_6" data-name="Grupo 6">
    <path id="Trazado_6" data-name="Trazado 6" d="M206.712,419.314c-5.659,0-9.5,4.7-9.5,10.729a11.29,11.29,0,0,0,2.233,6.977,9.624,9.624,0,0,0,7.476,3.488,9.112,9.112,0,0,0,7.579-3.488,1.764,1.764,0,1,1,2.648,2.325,13.082,13.082,0,0,1-10.279,4.7,13.745,13.745,0,0,1-10.435-4.7,15.411,15.411,0,0,1-3.063-10.359c.415-7.823,5.866-13.161,13.757-13.161a11.811,11.811,0,0,1,9.553,4.493c1.506,1.745-1.3,3.964-2.751,2.22A9.194,9.194,0,0,0,206.712,419.314Z" transform="translate(-193.344 -408.485)" fill="#158a0c"/>
    <path id="Trazado_7" data-name="Trazado 7" d="M277.354,417.848a12.259,12.259,0,0,1,5.555-1c2.959.053,6.334,1,8.2,4.123v-2.008a1.76,1.76,0,0,1,1.868-1.9,1.829,1.829,0,0,1,1.921,1.9v23.467a1.8,1.8,0,0,1-1.921,1.9,1.735,1.735,0,0,1-1.868-1.9v-2.537c-1.506,3.065-5.347,4.809-8.411,4.809a12.957,12.957,0,0,1-7.476-2.273c-3.946-2.748-5.97-7.241-5.815-12.421.1-5.338,3.011-10.254,7.995-12.209Zm13.758,14.958V428.63c0-5.233-3.582-7.928-8.255-8.14a9.28,9.28,0,0,0-8.878,5.655,11.63,11.63,0,0,0-.779,3.911,10.837,10.837,0,0,0,3.79,8.985,9.941,9.941,0,0,0,5.347,2.009C287.114,441.051,290.852,438.091,291.112,432.806Z" transform="translate(-242.441 -409.133)" fill="#158a0c"/>
    <path id="Trazado_8" data-name="Trazado 8" d="M359.051,437.227c.519,2.379,4.569,3.594,8.358,3.594,2.544,0,8-1.163,8-4.81,0-3.383-3.945-3.541-8.151-3.858-5.607-.529-11.629-1-11.629-7.506,0-5.655,6.334-8.087,11.318-8.087,4,0,9.553.687,11.37,5.444.727,2.378-2.855,3.383-3.53,1.374-1.142-3.065-5.5-3.277-7.839-3.277-3.011,0-7.528,1.321-7.528,4.6,0,3.383,3.842,3.33,8,3.647,5.711.529,11.785,1.057,11.785,7.664,0,6.66-7.476,8.3-11.785,8.3s-10.954-1.11-11.993-6.4C354.794,435.694,358.583,434.584,359.051,437.227Z" transform="translate(-297.92 -408.957)" fill="#158a0c"/>
    <path id="Trazado_9" data-name="Trazado 9" d="M458.328,414.782a8.1,8.1,0,0,0-8.047-8.245c-5.035,0-9.76,3.594-9.76,9.038v13.161a1.735,1.735,0,0,1-1.869,1.9,1.815,1.815,0,0,1-1.973-1.9v-31.66c0-2.272,3.842-2.22,3.842,0v11.1c1.869-3.7,5.918-5.232,9.812-5.232,6.022,0,11.785,4.228,11.785,11.839v13.954a1.735,1.735,0,0,1-1.869,1.9,1.8,1.8,0,0,1-1.921-1.9Z" transform="translate(-350.421 -395.391)" fill="#158a0c"/>
    <path id="Trazado_10" data-name="Trazado 10" d="M595.133,428.913a7.909,7.909,0,0,0-8.047-7.822c-5.451,0-9.76,4.122-9.76,10.2V442.92a1.922,1.922,0,0,1-3.841,0V429.812a8.678,8.678,0,0,0-3.583-7.452,8.233,8.233,0,0,0-4.464-1.216,9.677,9.677,0,0,0-9.709,9.884V442.92c0,2.431-3.79,2.378-3.79,0V419.294a1.867,1.867,0,0,1,1.869-1.85,1.76,1.76,0,0,1,1.817,1.85v3.647a10.619,10.619,0,0,1,9.76-5.5c4.516,0,8.981,2.273,10.539,6.977,1.869-4.7,6.385-6.977,11.006-6.977,5.97,0,11.992,4.069,11.992,11.311V442.92A1.76,1.76,0,0,1,597,444.77a1.7,1.7,0,0,1-1.868-1.85Z" transform="translate(-424.823 -409.522)" fill="#9b9b9b"/>
    <path id="Trazado_11" data-name="Trazado 11" d="M696.441,419.454c-1.661-2.22,1.506-3.964,2.908-2.273l8.514,10.676,9.189-10.676c1.35-1.85,4.413.211,3.063,2.061l-9.708,10.993,9.812,10.994c1.609,1.85-1.194,4.228-2.855,2.326l-9.449-11.046L699.037,443.5a1.863,1.863,0,1,1-2.752-2.484l9.033-10.782Z" transform="translate(-517.616 -408.89)" fill="#9b9b9b"/>
  </g>
</svg>
