<svg xmlns="http://www.w3.org/2000/svg" width="94.095" height="80" viewBox="0 0 94.095 80">
  <path id="Trazado_2972" data-name="Trazado 2972" d="M102.395,45.61A14.1,14.1,0,0,0,88.3,31.515H60.5V24.808a1.95,1.95,0,0,0-1.944-1.944H57.291V9.644a1.944,1.944,0,0,0-3.888,0V22.961H52.14A1.95,1.95,0,0,0,50.2,24.905v6.707h-27.8A14.1,14.1,0,0,0,8.3,45.707V73.314A14.1,14.1,0,0,0,22.395,87.408h1.458A14.1,14.1,0,0,0,37.948,73.314V70.2h34.7v3.4A14.1,14.1,0,0,0,86.745,87.7H88.2A14.1,14.1,0,0,0,102.3,73.605V60.094ZM54.084,26.752h2.527v4.763H54.084ZM98.507,73.605A10.205,10.205,0,0,1,88.3,83.812H86.842A10.205,10.205,0,0,1,76.635,73.605V68.259a1.95,1.95,0,0,0-1.944-1.944H36.1a1.95,1.95,0,0,0-1.944,1.944v5.055A10.205,10.205,0,0,1,23.95,83.52H22.492A10.205,10.205,0,0,1,12.285,73.314V45.61A10.205,10.205,0,0,1,22.492,35.4H88.3A10.205,10.205,0,0,1,98.507,45.61h0v28ZM31.629,47.943a5.943,5.943,0,0,0-11.859,0,5.943,5.943,0,0,0,0,11.859,5.943,5.943,0,0,0,11.859,0,5.948,5.948,0,0,0,5.541-5.93A6.1,6.1,0,0,0,31.629,47.943Zm-.486,8.068H29.685a1.95,1.95,0,0,0-1.944,1.944v1.458a2.139,2.139,0,0,1-4.277,0V57.955a1.95,1.95,0,0,0-1.944-1.944H20.062a2.139,2.139,0,1,1,0-4.277H21.52a1.95,1.95,0,0,0,1.944-1.944V48.332a2.139,2.139,0,0,1,4.277,0V49.79a1.95,1.95,0,0,0,1.944,1.944h1.458a2.158,2.158,0,0,1,2.139,2.139A2.225,2.225,0,0,1,31.143,56.011Zm53.171-5.249a5.082,5.082,0,0,0,5.055-5.055,5.055,5.055,0,1,0-10.109,0A5.082,5.082,0,0,0,84.315,50.762Zm0-6.318a1.182,1.182,0,0,1,1.166,1.166,1.351,1.351,0,0,1-1.166,1.264,1.182,1.182,0,0,1-1.166-1.166A1.269,1.269,0,0,1,84.315,44.444Zm0,11.373a5.082,5.082,0,0,0-5.055,5.055,5.056,5.056,0,1,0,10.109,0A5.02,5.02,0,0,0,84.315,55.817Zm0,6.318a1.182,1.182,0,0,1-1.166-1.166A1.254,1.254,0,0,1,84.315,59.8a1.182,1.182,0,0,1,1.166,1.166A1.254,1.254,0,0,1,84.315,62.135ZM91.508,48.04a5.082,5.082,0,0,0-5.055,5.055,5.055,5.055,0,1,0,10.109,0A5.082,5.082,0,0,0,91.508,48.04Zm0,6.318a1.182,1.182,0,0,1-1.166-1.166,1.254,1.254,0,0,1,1.166-1.166,1.166,1.166,0,1,1,0,2.333Zm-9.332-1.166a5.082,5.082,0,0,0-5.055-5.055,5.055,5.055,0,1,0,0,10.109A5.082,5.082,0,0,0,82.176,53.192Zm-5.152,1.166a1.182,1.182,0,0,1-1.166-1.166,1.166,1.166,0,1,1,2.333,0A1.182,1.182,0,0,1,77.024,54.359ZM51.848,59.122a1.329,1.329,0,0,1-1.361,1.361H47.377a1.361,1.361,0,0,1,0-2.722h3.111A1.39,1.39,0,0,1,51.848,59.122Zm12.831,0a1.329,1.329,0,0,1-1.361,1.361H60.208a1.361,1.361,0,0,1,0-2.722h3.111A1.329,1.329,0,0,1,64.679,59.122Zm5.055-20.51H40.961a1.95,1.95,0,0,0-1.944,1.944v8.262a1.95,1.95,0,0,0,1.944,1.944H69.734a1.95,1.95,0,0,0,1.944-1.944v-8.36A1.932,1.932,0,0,0,69.734,38.611ZM67.79,46.874H42.905V42.4H67.79Z" transform="translate(-8.3 -7.7)" fill="#284491"/>
</svg>
